<svg width="70" height="70" viewBox="0 0 70 70" fill="none" xmlns="http://www.w3.org/2000/svg">
<circle opacity="0.8" cx="35" cy="35.0002" r="35" fill="url(#paint0_linear_2_3)"/>
<circle cx="35" cy="35.0002" r="29.2464" fill="white" stroke="black" stroke-width="2.57111"/>
<circle cx="35.3208" cy="34.6784" r="24.4255" stroke="black" stroke-width="1.92833" stroke-linecap="round" stroke-linejoin="round" stroke-dasharray="0.02 2.92"/>
<path d="M25.3697 44.6802C23.9754 44.5656 22.839 44.3555 21.9604 44.0499C21.1009 43.7252 20.4611 43.4578 20.0409 43.2478L21.2728 39.9531C21.9413 40.2778 22.734 40.5738 23.6507 40.8412C24.5866 41.1086 25.5703 41.2423 26.6016 41.2423C27.7667 41.2423 28.5594 41.0895 28.9795 40.7839C29.4188 40.4592 29.6385 40.0104 29.6385 39.4374C29.6385 39.0745 29.5525 38.7689 29.3806 38.5206C29.2087 38.2532 28.9604 38.0144 28.6358 37.8043C28.3111 37.5943 27.9004 37.3937 27.4038 37.2027C26.9072 36.9926 26.3342 36.773 25.6849 36.5438C25.0546 36.3146 24.4338 36.0663 23.8226 35.7989C23.2305 35.5124 22.6862 35.1686 22.1896 34.7675C21.7121 34.3664 21.3206 33.8794 21.015 33.3064C20.7285 32.7143 20.5852 32.0076 20.5852 31.1863C20.5852 30.556 20.6712 29.9544 20.8431 29.3814C21.0341 28.7893 21.3206 28.2545 21.7026 27.777C22.0846 27.2995 22.5812 26.8984 23.1923 26.5737C23.8035 26.23 24.5293 25.9817 25.3697 25.8289V22.7347H28.9795V25.7143C29.9727 25.8098 30.8227 25.953 31.5294 26.144C32.2551 26.335 32.8281 26.526 33.2483 26.717L32.3602 30.1549C31.7299 29.8875 30.9946 29.6583 30.1542 29.4673C29.3329 29.2763 28.4639 29.1809 27.5471 29.1809C26.6303 29.1809 25.9713 29.3336 25.5703 29.6392C25.1692 29.9448 24.9686 30.3459 24.9686 30.8425C24.9686 31.1481 25.0259 31.4155 25.1405 31.6447C25.2742 31.8548 25.4748 32.0458 25.7422 32.2177C26.0095 32.3896 26.3342 32.5615 26.7162 32.7334C27.1173 32.8862 27.5948 33.0581 28.1487 33.2491C28.9891 33.5547 29.7626 33.8889 30.4693 34.2518C31.1951 34.6147 31.8158 35.0349 32.3315 35.5124C32.8663 35.9708 33.277 36.5151 33.5635 37.1454C33.8691 37.7757 34.0219 38.511 34.0219 39.3514C34.0219 39.9244 33.9359 40.4974 33.764 41.0704C33.5921 41.6243 33.3056 42.14 32.9045 42.6175C32.5034 43.095 31.9782 43.5056 31.3288 43.8494C30.6985 44.1932 29.9154 44.4415 28.9795 44.5943V48.0895H25.3697V44.6802ZM41.6529 44.6802C40.2586 44.5656 39.1222 44.3555 38.2436 44.0499C37.3841 43.7252 36.7443 43.4578 36.3241 43.2478L37.556 39.9531C38.2245 40.2778 39.0172 40.5738 39.934 40.8412C40.8698 41.1086 41.8535 41.2423 42.8848 41.2423C44.0499 41.2423 44.8426 41.0895 45.2628 40.7839C45.702 40.4592 45.9217 40.0104 45.9217 39.4374C45.9217 39.0745 45.8357 38.7689 45.6639 38.5206C45.492 38.2532 45.2437 38.0144 44.919 37.8043C44.5943 37.5943 44.1836 37.3937 43.687 37.2027C43.1904 36.9926 42.6175 36.773 41.9681 36.5438C41.3378 36.3146 40.717 36.0663 40.1058 35.7989C39.5138 35.5124 38.9694 35.1686 38.4728 34.7675C37.9953 34.3664 37.6038 33.8794 37.2982 33.3064C37.0117 32.7143 36.8685 32.0076 36.8685 31.1863C36.8685 30.556 36.9544 29.9544 37.1263 29.3814C37.3173 28.7893 37.6038 28.2545 37.9858 27.777C38.3678 27.2995 38.8644 26.8984 39.4756 26.5737C40.0867 26.23 40.8125 25.9817 41.6529 25.8289V22.7347H45.2628V25.7143C46.2559 25.8098 47.1059 25.953 47.8126 26.144C48.5383 26.335 49.1113 26.526 49.5315 26.717L48.6434 30.1549C48.0131 29.8875 47.2778 29.6583 46.4374 29.4673C45.6161 29.2763 44.7471 29.1809 43.8303 29.1809C42.9135 29.1809 42.2546 29.3336 41.8535 29.6392C41.4524 29.9448 41.2518 30.3459 41.2518 30.8425C41.2518 31.1481 41.3091 31.4155 41.4237 31.6447C41.5574 31.8548 41.758 32.0458 42.0254 32.2177C42.2928 32.3896 42.6175 32.5615 42.9994 32.7334C43.4005 32.8862 43.878 33.0581 44.4319 33.2491C45.2723 33.5547 46.0458 33.8889 46.7525 34.2518C47.4783 34.6147 48.0991 35.0349 48.6147 35.5124C49.1495 35.9708 49.5602 36.5151 49.8467 37.1454C50.1523 37.7757 50.3051 38.511 50.3051 39.3514C50.3051 39.9244 50.2191 40.4974 50.0472 41.0704C49.8753 41.6243 49.5888 42.14 49.1877 42.6175C48.7866 43.095 48.2614 43.5056 47.612 43.8494C46.9817 44.1932 46.1986 44.4415 45.2628 44.5943V48.0895H41.6529V44.6802Z" fill="black"/>
<defs>
<linearGradient id="paint0_linear_2_3" x1="70" y1="64.7562" x2="-6.31952" y2="53.8077" gradientUnits="userSpaceOnUse">
<stop stop-color="#FF2A6D"/>
<stop offset="0.516647" stop-color="#A07EFF"/>
<stop offset="1" stop-color="#3DFFFF"/>
</linearGradient>
</defs>
</svg>
